<mxfile host="app.diagrams.net" agent="Mozilla/5.0 (Macintosh; Intel Mac OS X 10_15_7) AppleWebKit/537.36 (KHTML, like Gecko) Chrome/130.0.0.0 Safari/537.36" version="24.8.4">
  <diagram id="C5RBs43oDa-KdzZeNtuy" name="Page-1">
    <mxGraphModel dx="1242" dy="785" grid="1" gridSize="10" guides="1" tooltips="1" connect="1" arrows="1" fold="1" page="1" pageScale="1" pageWidth="827" pageHeight="1169" math="0" shadow="0">
      <root>
        <mxCell id="WIyWlLk6GJQsqaUBKTNV-0" />
        <mxCell id="WIyWlLk6GJQsqaUBKTNV-1" parent="WIyWlLk6GJQsqaUBKTNV-0" />
        <mxCell id="j2gXQujpd4SuEo7q7hQ5-22" style="edgeStyle=orthogonalEdgeStyle;rounded=0;orthogonalLoop=1;jettySize=auto;html=1;exitX=0.5;exitY=0.5;exitDx=0;exitDy=0;exitPerimeter=0;" edge="1" parent="WIyWlLk6GJQsqaUBKTNV-1" source="j2gXQujpd4SuEo7q7hQ5-0" target="j2gXQujpd4SuEo7q7hQ5-4">
          <mxGeometry relative="1" as="geometry" />
        </mxCell>
        <mxCell id="j2gXQujpd4SuEo7q7hQ5-0" value="비회원" style="shape=umlActor;verticalLabelPosition=bottom;verticalAlign=top;html=1;outlineConnect=0;" vertex="1" parent="WIyWlLk6GJQsqaUBKTNV-1">
          <mxGeometry x="110" y="90" width="30" height="60" as="geometry" />
        </mxCell>
        <mxCell id="j2gXQujpd4SuEo7q7hQ5-25" style="edgeStyle=orthogonalEdgeStyle;rounded=0;orthogonalLoop=1;jettySize=auto;html=1;exitX=0.5;exitY=0.5;exitDx=0;exitDy=0;exitPerimeter=0;entryX=0;entryY=0.5;entryDx=0;entryDy=0;" edge="1" parent="WIyWlLk6GJQsqaUBKTNV-1" source="j2gXQujpd4SuEo7q7hQ5-3" target="j2gXQujpd4SuEo7q7hQ5-9">
          <mxGeometry relative="1" as="geometry" />
        </mxCell>
        <mxCell id="j2gXQujpd4SuEo7q7hQ5-26" style="edgeStyle=orthogonalEdgeStyle;rounded=0;orthogonalLoop=1;jettySize=auto;html=1;exitX=0.5;exitY=0.5;exitDx=0;exitDy=0;exitPerimeter=0;entryX=0;entryY=0.5;entryDx=0;entryDy=0;" edge="1" parent="WIyWlLk6GJQsqaUBKTNV-1" source="j2gXQujpd4SuEo7q7hQ5-3" target="j2gXQujpd4SuEo7q7hQ5-11">
          <mxGeometry relative="1" as="geometry" />
        </mxCell>
        <mxCell id="j2gXQujpd4SuEo7q7hQ5-27" style="edgeStyle=orthogonalEdgeStyle;rounded=0;orthogonalLoop=1;jettySize=auto;html=1;exitX=0.5;exitY=0.5;exitDx=0;exitDy=0;exitPerimeter=0;entryX=0;entryY=0.5;entryDx=0;entryDy=0;" edge="1" parent="WIyWlLk6GJQsqaUBKTNV-1" source="j2gXQujpd4SuEo7q7hQ5-3" target="j2gXQujpd4SuEo7q7hQ5-10">
          <mxGeometry relative="1" as="geometry" />
        </mxCell>
        <mxCell id="j2gXQujpd4SuEo7q7hQ5-31" style="edgeStyle=orthogonalEdgeStyle;rounded=0;orthogonalLoop=1;jettySize=auto;html=1;exitX=0.5;exitY=0.5;exitDx=0;exitDy=0;exitPerimeter=0;entryX=0.5;entryY=0;entryDx=0;entryDy=0;" edge="1" parent="WIyWlLk6GJQsqaUBKTNV-1" source="j2gXQujpd4SuEo7q7hQ5-3" target="j2gXQujpd4SuEo7q7hQ5-5">
          <mxGeometry relative="1" as="geometry" />
        </mxCell>
        <mxCell id="j2gXQujpd4SuEo7q7hQ5-3" value="회원" style="shape=umlActor;verticalLabelPosition=bottom;verticalAlign=top;html=1;outlineConnect=0;" vertex="1" parent="WIyWlLk6GJQsqaUBKTNV-1">
          <mxGeometry x="110" y="410" width="30" height="60" as="geometry" />
        </mxCell>
        <mxCell id="j2gXQujpd4SuEo7q7hQ5-4" value="회원가입" style="rounded=1;whiteSpace=wrap;html=1;" vertex="1" parent="WIyWlLk6GJQsqaUBKTNV-1">
          <mxGeometry x="260" y="100" width="110" height="40" as="geometry" />
        </mxCell>
        <mxCell id="j2gXQujpd4SuEo7q7hQ5-5" value="로그인" style="rounded=1;whiteSpace=wrap;html=1;" vertex="1" parent="WIyWlLk6GJQsqaUBKTNV-1">
          <mxGeometry x="70" y="580" width="110" height="40" as="geometry" />
        </mxCell>
        <mxCell id="j2gXQujpd4SuEo7q7hQ5-9" value="게시글 작성" style="rounded=1;whiteSpace=wrap;html=1;" vertex="1" parent="WIyWlLk6GJQsqaUBKTNV-1">
          <mxGeometry x="260" y="250" width="110" height="40" as="geometry" />
        </mxCell>
        <mxCell id="j2gXQujpd4SuEo7q7hQ5-49" style="edgeStyle=orthogonalEdgeStyle;rounded=0;orthogonalLoop=1;jettySize=auto;html=1;exitX=0.5;exitY=1;exitDx=0;exitDy=0;entryX=0.5;entryY=0;entryDx=0;entryDy=0;dashed=1;" edge="1" parent="WIyWlLk6GJQsqaUBKTNV-1" source="j2gXQujpd4SuEo7q7hQ5-10" target="j2gXQujpd4SuEo7q7hQ5-16">
          <mxGeometry relative="1" as="geometry" />
        </mxCell>
        <mxCell id="j2gXQujpd4SuEo7q7hQ5-52" style="edgeStyle=orthogonalEdgeStyle;rounded=0;orthogonalLoop=1;jettySize=auto;html=1;exitX=0.5;exitY=1;exitDx=0;exitDy=0;entryX=0.5;entryY=0;entryDx=0;entryDy=0;dashed=1;" edge="1" parent="WIyWlLk6GJQsqaUBKTNV-1" source="j2gXQujpd4SuEo7q7hQ5-10" target="j2gXQujpd4SuEo7q7hQ5-51">
          <mxGeometry relative="1" as="geometry" />
        </mxCell>
        <mxCell id="j2gXQujpd4SuEo7q7hQ5-10" value="선택 게시글 조회" style="rounded=1;whiteSpace=wrap;html=1;" vertex="1" parent="WIyWlLk6GJQsqaUBKTNV-1">
          <mxGeometry x="260" y="420" width="110" height="40" as="geometry" />
        </mxCell>
        <mxCell id="j2gXQujpd4SuEo7q7hQ5-11" value="전체 게시글 조회" style="rounded=1;whiteSpace=wrap;html=1;" vertex="1" parent="WIyWlLk6GJQsqaUBKTNV-1">
          <mxGeometry x="260" y="330" width="110" height="40" as="geometry" />
        </mxCell>
        <mxCell id="j2gXQujpd4SuEo7q7hQ5-36" style="edgeStyle=orthogonalEdgeStyle;rounded=0;orthogonalLoop=1;jettySize=auto;html=1;exitX=0;exitY=0.5;exitDx=0;exitDy=0;entryX=1;entryY=0.5;entryDx=0;entryDy=0;dashed=1;" edge="1" parent="WIyWlLk6GJQsqaUBKTNV-1" source="j2gXQujpd4SuEo7q7hQ5-12" target="j2gXQujpd4SuEo7q7hQ5-10">
          <mxGeometry relative="1" as="geometry" />
        </mxCell>
        <mxCell id="j2gXQujpd4SuEo7q7hQ5-38" style="edgeStyle=orthogonalEdgeStyle;rounded=0;orthogonalLoop=1;jettySize=auto;html=1;exitX=0;exitY=0.5;exitDx=0;exitDy=0;entryX=1;entryY=0.5;entryDx=0;entryDy=0;dashed=1;" edge="1" parent="WIyWlLk6GJQsqaUBKTNV-1" source="j2gXQujpd4SuEo7q7hQ5-13" target="j2gXQujpd4SuEo7q7hQ5-10">
          <mxGeometry relative="1" as="geometry" />
        </mxCell>
        <mxCell id="j2gXQujpd4SuEo7q7hQ5-56" style="edgeStyle=orthogonalEdgeStyle;rounded=0;orthogonalLoop=1;jettySize=auto;html=1;exitX=0;exitY=0.5;exitDx=0;exitDy=0;entryX=1;entryY=0.5;entryDx=0;entryDy=0;dashed=1;" edge="1" parent="WIyWlLk6GJQsqaUBKTNV-1" source="j2gXQujpd4SuEo7q7hQ5-14" target="j2gXQujpd4SuEo7q7hQ5-51">
          <mxGeometry relative="1" as="geometry" />
        </mxCell>
        <mxCell id="j2gXQujpd4SuEo7q7hQ5-14" value="댓글 삭제" style="rounded=1;whiteSpace=wrap;html=1;" vertex="1" parent="WIyWlLk6GJQsqaUBKTNV-1">
          <mxGeometry x="560" y="610" width="110" height="40" as="geometry" />
        </mxCell>
        <mxCell id="j2gXQujpd4SuEo7q7hQ5-55" style="edgeStyle=orthogonalEdgeStyle;rounded=0;orthogonalLoop=1;jettySize=auto;html=1;exitX=0;exitY=0.5;exitDx=0;exitDy=0;entryX=1;entryY=0.5;entryDx=0;entryDy=0;dashed=1;" edge="1" parent="WIyWlLk6GJQsqaUBKTNV-1" source="j2gXQujpd4SuEo7q7hQ5-15" target="j2gXQujpd4SuEo7q7hQ5-51">
          <mxGeometry relative="1" as="geometry" />
        </mxCell>
        <mxCell id="j2gXQujpd4SuEo7q7hQ5-15" value="댓글 수정" style="rounded=1;whiteSpace=wrap;html=1;" vertex="1" parent="WIyWlLk6GJQsqaUBKTNV-1">
          <mxGeometry x="560" y="550" width="110" height="40" as="geometry" />
        </mxCell>
        <mxCell id="j2gXQujpd4SuEo7q7hQ5-16" value="댓글 작성" style="rounded=1;whiteSpace=wrap;html=1;" vertex="1" parent="WIyWlLk6GJQsqaUBKTNV-1">
          <mxGeometry x="210" y="580" width="110" height="40" as="geometry" />
        </mxCell>
        <mxCell id="j2gXQujpd4SuEo7q7hQ5-44" value="&amp;lt;extends&amp;gt;" style="text;html=1;align=center;verticalAlign=middle;whiteSpace=wrap;rounded=0;" vertex="1" parent="WIyWlLk6GJQsqaUBKTNV-1">
          <mxGeometry x="500" y="540" width="60" height="30" as="geometry" />
        </mxCell>
        <mxCell id="j2gXQujpd4SuEo7q7hQ5-45" value="&amp;lt;extends&amp;gt;" style="text;html=1;align=center;verticalAlign=middle;whiteSpace=wrap;rounded=0;" vertex="1" parent="WIyWlLk6GJQsqaUBKTNV-1">
          <mxGeometry x="500" y="630" width="60" height="30" as="geometry" />
        </mxCell>
        <mxCell id="j2gXQujpd4SuEo7q7hQ5-50" value="&amp;lt;include&lt;span style=&quot;background-color: initial;&quot;&gt;&amp;gt;&lt;/span&gt;" style="text;html=1;align=center;verticalAlign=middle;whiteSpace=wrap;rounded=0;" vertex="1" parent="WIyWlLk6GJQsqaUBKTNV-1">
          <mxGeometry x="210" y="550" width="60" height="30" as="geometry" />
        </mxCell>
        <mxCell id="j2gXQujpd4SuEo7q7hQ5-13" value="선택 게시글 삭제" style="rounded=1;whiteSpace=wrap;html=1;" vertex="1" parent="WIyWlLk6GJQsqaUBKTNV-1">
          <mxGeometry x="484" y="456.5" width="110" height="40" as="geometry" />
        </mxCell>
        <mxCell id="j2gXQujpd4SuEo7q7hQ5-41" value="&amp;lt;extends&amp;gt;" style="text;html=1;align=center;verticalAlign=middle;whiteSpace=wrap;rounded=0;" vertex="1" parent="WIyWlLk6GJQsqaUBKTNV-1">
          <mxGeometry x="424" y="473.5" width="60" height="30" as="geometry" />
        </mxCell>
        <mxCell id="j2gXQujpd4SuEo7q7hQ5-12" value="선택 게시글 수정" style="rounded=1;whiteSpace=wrap;html=1;" vertex="1" parent="WIyWlLk6GJQsqaUBKTNV-1">
          <mxGeometry x="484" y="370" width="110" height="40" as="geometry" />
        </mxCell>
        <mxCell id="j2gXQujpd4SuEo7q7hQ5-40" value="&amp;lt;extends&amp;gt;" style="text;html=1;align=center;verticalAlign=middle;whiteSpace=wrap;rounded=0;" vertex="1" parent="WIyWlLk6GJQsqaUBKTNV-1">
          <mxGeometry x="424" y="363" width="60" height="30" as="geometry" />
        </mxCell>
        <mxCell id="j2gXQujpd4SuEo7q7hQ5-51" value="댓글 조회" style="rounded=1;whiteSpace=wrap;html=1;" vertex="1" parent="WIyWlLk6GJQsqaUBKTNV-1">
          <mxGeometry x="340" y="580" width="110" height="40" as="geometry" />
        </mxCell>
        <mxCell id="j2gXQujpd4SuEo7q7hQ5-53" value="&amp;lt;include&lt;span style=&quot;background-color: initial;&quot;&gt;&amp;gt;&lt;/span&gt;" style="text;html=1;align=center;verticalAlign=middle;whiteSpace=wrap;rounded=0;" vertex="1" parent="WIyWlLk6GJQsqaUBKTNV-1">
          <mxGeometry x="340" y="550" width="60" height="30" as="geometry" />
        </mxCell>
      </root>
    </mxGraphModel>
  </diagram>
</mxfile>
